<mxfile host="app.diagrams.net" agent="Mozilla/5.0 (Macintosh; Intel Mac OS X 10_15_7) AppleWebKit/537.36 (KHTML, like Gecko) Chrome/134.0.0.0 Safari/537.36" version="26.2.13">
  <diagram name="Page-1" id="2fsaArcSKaViCRosRNY7">
    <mxGraphModel grid="1" page="1" gridSize="10" guides="1" tooltips="1" connect="1" arrows="1" fold="1" pageScale="1" pageWidth="850" pageHeight="1100" math="0" shadow="0">
      <root>
        <mxCell id="0" />
        <mxCell id="1" parent="0" />
        <mxCell id="8BKkQeqGmliwjkBOR47k-23" style="edgeStyle=orthogonalEdgeStyle;rounded=0;orthogonalLoop=1;jettySize=auto;html=1;exitX=0;exitY=0.5;exitDx=0;exitDy=0;entryX=1;entryY=0.5;entryDx=0;entryDy=0;" edge="1" parent="1" source="8BKkQeqGmliwjkBOR47k-2" target="8BKkQeqGmliwjkBOR47k-22">
          <mxGeometry relative="1" as="geometry" />
        </mxCell>
        <mxCell id="8BKkQeqGmliwjkBOR47k-2" value="pymongo-api" style="rounded=1;whiteSpace=wrap;html=1;" vertex="1" parent="1">
          <mxGeometry x="371" y="350" width="120" height="60" as="geometry" />
        </mxCell>
        <mxCell id="8BKkQeqGmliwjkBOR47k-3" value="pymongo-api" style="rounded=1;whiteSpace=wrap;html=1;" vertex="1" parent="1">
          <mxGeometry x="381" y="360" width="120" height="60" as="geometry" />
        </mxCell>
        <mxCell id="8BKkQeqGmliwjkBOR47k-28" style="edgeStyle=orthogonalEdgeStyle;rounded=0;orthogonalLoop=1;jettySize=auto;html=1;exitX=0.5;exitY=1;exitDx=0;exitDy=0;entryX=0.5;entryY=0;entryDx=0;entryDy=0;" edge="1" parent="1" source="8BKkQeqGmliwjkBOR47k-4" target="8BKkQeqGmliwjkBOR47k-24">
          <mxGeometry relative="1" as="geometry" />
        </mxCell>
        <mxCell id="8BKkQeqGmliwjkBOR47k-4" value="pymongo-api" style="rounded=1;whiteSpace=wrap;html=1;" vertex="1" parent="1">
          <mxGeometry x="391" y="370" width="120" height="60" as="geometry" />
        </mxCell>
        <mxCell id="8BKkQeqGmliwjkBOR47k-19" style="edgeStyle=orthogonalEdgeStyle;rounded=0;orthogonalLoop=1;jettySize=auto;html=1;exitX=0.5;exitY=1;exitDx=0;exitDy=0;entryX=0.5;entryY=0;entryDx=0;entryDy=0;" edge="1" parent="1" source="8BKkQeqGmliwjkBOR47k-5" target="8BKkQeqGmliwjkBOR47k-18">
          <mxGeometry relative="1" as="geometry" />
        </mxCell>
        <mxCell id="8BKkQeqGmliwjkBOR47k-5" value="FE" style="rounded=1;whiteSpace=wrap;html=1;" vertex="1" parent="1">
          <mxGeometry x="370" y="110" width="120" height="60" as="geometry" />
        </mxCell>
        <mxCell id="8BKkQeqGmliwjkBOR47k-17" style="edgeStyle=orthogonalEdgeStyle;rounded=0;orthogonalLoop=1;jettySize=auto;html=1;" edge="1" parent="1" source="8BKkQeqGmliwjkBOR47k-6" target="8BKkQeqGmliwjkBOR47k-5">
          <mxGeometry relative="1" as="geometry" />
        </mxCell>
        <mxCell id="8BKkQeqGmliwjkBOR47k-45" value="" style="edgeStyle=orthogonalEdgeStyle;rounded=0;orthogonalLoop=1;jettySize=auto;html=1;" edge="1" parent="1" source="8BKkQeqGmliwjkBOR47k-6" target="8BKkQeqGmliwjkBOR47k-5">
          <mxGeometry relative="1" as="geometry" />
        </mxCell>
        <mxCell id="8BKkQeqGmliwjkBOR47k-6" value="" style="shape=umlActor;verticalLabelPosition=bottom;verticalAlign=top;html=1;outlineConnect=0;" vertex="1" parent="1">
          <mxGeometry x="415" y="-30" width="30" height="60" as="geometry" />
        </mxCell>
        <mxCell id="8BKkQeqGmliwjkBOR47k-7" style="edgeStyle=orthogonalEdgeStyle;rounded=0;orthogonalLoop=1;jettySize=auto;html=1;exitX=0;exitY=0.5;exitDx=0;exitDy=0;" edge="1" parent="1">
          <mxGeometry relative="1" as="geometry">
            <mxPoint x="360" y="139.5" as="sourcePoint" />
            <mxPoint x="150" y="139.5" as="targetPoint" />
          </mxGeometry>
        </mxCell>
        <mxCell id="8BKkQeqGmliwjkBOR47k-8" value="статический&amp;nbsp;&lt;div&gt;контент&lt;/div&gt;" style="edgeLabel;html=1;align=center;verticalAlign=middle;resizable=0;points=[];" connectable="0" vertex="1" parent="8BKkQeqGmliwjkBOR47k-7">
          <mxGeometry x="0.0667" y="1" relative="1" as="geometry">
            <mxPoint as="offset" />
          </mxGeometry>
        </mxCell>
        <mxCell id="8BKkQeqGmliwjkBOR47k-13" style="edgeStyle=orthogonalEdgeStyle;rounded=0;orthogonalLoop=1;jettySize=auto;html=1;exitX=0;exitY=0.5;exitDx=0;exitDy=0;entryX=1;entryY=0.5;entryDx=0;entryDy=0;" edge="1" parent="1" source="8BKkQeqGmliwjkBOR47k-9" target="8BKkQeqGmliwjkBOR47k-10">
          <mxGeometry relative="1" as="geometry" />
        </mxCell>
        <mxCell id="8BKkQeqGmliwjkBOR47k-14" style="edgeStyle=orthogonalEdgeStyle;rounded=0;orthogonalLoop=1;jettySize=auto;html=1;entryX=1;entryY=0.5;entryDx=0;entryDy=0;" edge="1" parent="1" source="8BKkQeqGmliwjkBOR47k-9" target="8BKkQeqGmliwjkBOR47k-11">
          <mxGeometry relative="1" as="geometry" />
        </mxCell>
        <mxCell id="8BKkQeqGmliwjkBOR47k-15" style="edgeStyle=orthogonalEdgeStyle;rounded=0;orthogonalLoop=1;jettySize=auto;html=1;exitX=0;exitY=0.5;exitDx=0;exitDy=0;entryX=1;entryY=0.5;entryDx=0;entryDy=0;" edge="1" parent="1" source="8BKkQeqGmliwjkBOR47k-9" target="8BKkQeqGmliwjkBOR47k-12">
          <mxGeometry relative="1" as="geometry" />
        </mxCell>
        <mxCell id="8BKkQeqGmliwjkBOR47k-9" value="Geo DNS" style="rounded=1;whiteSpace=wrap;html=1;" vertex="1" parent="1">
          <mxGeometry x="50" y="110" width="120" height="60" as="geometry" />
        </mxCell>
        <mxCell id="8BKkQeqGmliwjkBOR47k-10" value="RU" style="rounded=1;whiteSpace=wrap;html=1;" vertex="1" parent="1">
          <mxGeometry x="-160" y="30" width="120" height="60" as="geometry" />
        </mxCell>
        <mxCell id="8BKkQeqGmliwjkBOR47k-11" value="EU" style="rounded=1;whiteSpace=wrap;html=1;" vertex="1" parent="1">
          <mxGeometry x="-160" y="110" width="120" height="60" as="geometry" />
        </mxCell>
        <mxCell id="8BKkQeqGmliwjkBOR47k-12" value="CA" style="rounded=1;whiteSpace=wrap;html=1;" vertex="1" parent="1">
          <mxGeometry x="-160" y="190" width="120" height="60" as="geometry" />
        </mxCell>
        <mxCell id="8BKkQeqGmliwjkBOR47k-20" style="edgeStyle=orthogonalEdgeStyle;rounded=0;orthogonalLoop=1;jettySize=auto;html=1;exitX=0.5;exitY=1;exitDx=0;exitDy=0;entryX=0.5;entryY=0;entryDx=0;entryDy=0;" edge="1" parent="1" source="8BKkQeqGmliwjkBOR47k-18" target="8BKkQeqGmliwjkBOR47k-2">
          <mxGeometry relative="1" as="geometry" />
        </mxCell>
        <mxCell id="8BKkQeqGmliwjkBOR47k-18" value="NGINX" style="rounded=1;whiteSpace=wrap;html=1;" vertex="1" parent="1">
          <mxGeometry x="370" y="230" width="120" height="60" as="geometry" />
        </mxCell>
        <mxCell id="8BKkQeqGmliwjkBOR47k-22" value="Redis" style="rounded=1;whiteSpace=wrap;html=1;" vertex="1" parent="1">
          <mxGeometry x="180" y="350" width="120" height="60" as="geometry" />
        </mxCell>
        <mxCell id="8BKkQeqGmliwjkBOR47k-26" style="edgeStyle=orthogonalEdgeStyle;rounded=0;orthogonalLoop=1;jettySize=auto;html=1;exitX=1;exitY=0.5;exitDx=0;exitDy=0;entryX=0;entryY=0.5;entryDx=0;entryDy=0;" edge="1" parent="1" source="8BKkQeqGmliwjkBOR47k-24" target="8BKkQeqGmliwjkBOR47k-25">
          <mxGeometry relative="1" as="geometry" />
        </mxCell>
        <mxCell id="8BKkQeqGmliwjkBOR47k-37" style="edgeStyle=orthogonalEdgeStyle;rounded=0;orthogonalLoop=1;jettySize=auto;html=1;exitX=0.5;exitY=1;exitDx=0;exitDy=0;" edge="1" parent="1" source="8BKkQeqGmliwjkBOR47k-24" target="8BKkQeqGmliwjkBOR47k-33">
          <mxGeometry relative="1" as="geometry" />
        </mxCell>
        <mxCell id="8BKkQeqGmliwjkBOR47k-24" value="Mongo Router" style="rounded=1;whiteSpace=wrap;html=1;" vertex="1" parent="1">
          <mxGeometry x="391" y="470" width="120" height="60" as="geometry" />
        </mxCell>
        <mxCell id="8BKkQeqGmliwjkBOR47k-25" value="configSrv" style="rounded=1;whiteSpace=wrap;html=1;" vertex="1" parent="1">
          <mxGeometry x="550" y="470" width="120" height="60" as="geometry" />
        </mxCell>
        <mxCell id="8BKkQeqGmliwjkBOR47k-29" value="MongoDB&lt;div&gt;shard 1&lt;/div&gt;&lt;div&gt;master&lt;/div&gt;" style="shape=cylinder3;whiteSpace=wrap;html=1;boundedLbl=1;backgroundOutline=1;size=15;" vertex="1" parent="1">
          <mxGeometry x="271" y="590" width="60" height="80" as="geometry" />
        </mxCell>
        <mxCell id="8BKkQeqGmliwjkBOR47k-31" value="MongoDB&lt;div&gt;slave 1&lt;/div&gt;" style="shape=cylinder3;whiteSpace=wrap;html=1;boundedLbl=1;backgroundOutline=1;size=15;" vertex="1" parent="1">
          <mxGeometry x="200" y="680" width="60" height="80" as="geometry" />
        </mxCell>
        <mxCell id="8BKkQeqGmliwjkBOR47k-32" value="MongoDB&lt;div&gt;slave 2&lt;/div&gt;" style="shape=cylinder3;whiteSpace=wrap;html=1;boundedLbl=1;backgroundOutline=1;size=15;" vertex="1" parent="1">
          <mxGeometry x="341" y="680" width="60" height="80" as="geometry" />
        </mxCell>
        <mxCell id="8BKkQeqGmliwjkBOR47k-33" value="MongoDB&lt;div&gt;shard 2&lt;/div&gt;&lt;div&gt;master&lt;/div&gt;" style="shape=cylinder3;whiteSpace=wrap;html=1;boundedLbl=1;backgroundOutline=1;size=15;" vertex="1" parent="1">
          <mxGeometry x="582" y="590" width="60" height="80" as="geometry" />
        </mxCell>
        <mxCell id="8BKkQeqGmliwjkBOR47k-34" value="MongoDB&lt;div&gt;slave 1&lt;/div&gt;" style="shape=cylinder3;whiteSpace=wrap;html=1;boundedLbl=1;backgroundOutline=1;size=15;" vertex="1" parent="1">
          <mxGeometry x="511" y="680" width="60" height="80" as="geometry" />
        </mxCell>
        <mxCell id="8BKkQeqGmliwjkBOR47k-35" value="MongoDB&lt;div&gt;slave 2&lt;/div&gt;" style="shape=cylinder3;whiteSpace=wrap;html=1;boundedLbl=1;backgroundOutline=1;size=15;" vertex="1" parent="1">
          <mxGeometry x="652" y="680" width="60" height="80" as="geometry" />
        </mxCell>
        <mxCell id="8BKkQeqGmliwjkBOR47k-38" style="edgeStyle=orthogonalEdgeStyle;rounded=0;orthogonalLoop=1;jettySize=auto;html=1;exitX=0.5;exitY=1;exitDx=0;exitDy=0;entryX=0.5;entryY=0;entryDx=0;entryDy=0;entryPerimeter=0;" edge="1" parent="1" source="8BKkQeqGmliwjkBOR47k-24" target="8BKkQeqGmliwjkBOR47k-29">
          <mxGeometry relative="1" as="geometry" />
        </mxCell>
        <mxCell id="8BKkQeqGmliwjkBOR47k-41" style="edgeStyle=orthogonalEdgeStyle;rounded=0;orthogonalLoop=1;jettySize=auto;html=1;exitX=0.5;exitY=1;exitDx=0;exitDy=0;exitPerimeter=0;entryX=1;entryY=0;entryDx=0;entryDy=27.5;entryPerimeter=0;" edge="1" parent="1" source="8BKkQeqGmliwjkBOR47k-29" target="8BKkQeqGmliwjkBOR47k-31">
          <mxGeometry relative="1" as="geometry" />
        </mxCell>
        <mxCell id="8BKkQeqGmliwjkBOR47k-42" style="edgeStyle=orthogonalEdgeStyle;rounded=0;orthogonalLoop=1;jettySize=auto;html=1;exitX=0.5;exitY=1;exitDx=0;exitDy=0;exitPerimeter=0;entryX=0;entryY=0;entryDx=0;entryDy=27.5;entryPerimeter=0;" edge="1" parent="1" source="8BKkQeqGmliwjkBOR47k-29" target="8BKkQeqGmliwjkBOR47k-32">
          <mxGeometry relative="1" as="geometry" />
        </mxCell>
        <mxCell id="8BKkQeqGmliwjkBOR47k-43" style="edgeStyle=orthogonalEdgeStyle;rounded=0;orthogonalLoop=1;jettySize=auto;html=1;exitX=0.5;exitY=1;exitDx=0;exitDy=0;exitPerimeter=0;entryX=1;entryY=0.5;entryDx=0;entryDy=0;entryPerimeter=0;" edge="1" parent="1" source="8BKkQeqGmliwjkBOR47k-33" target="8BKkQeqGmliwjkBOR47k-34">
          <mxGeometry relative="1" as="geometry" />
        </mxCell>
        <mxCell id="8BKkQeqGmliwjkBOR47k-44" style="edgeStyle=orthogonalEdgeStyle;rounded=0;orthogonalLoop=1;jettySize=auto;html=1;exitX=0.5;exitY=1;exitDx=0;exitDy=0;exitPerimeter=0;entryX=0;entryY=0.5;entryDx=0;entryDy=0;entryPerimeter=0;" edge="1" parent="1" source="8BKkQeqGmliwjkBOR47k-33" target="8BKkQeqGmliwjkBOR47k-35">
          <mxGeometry relative="1" as="geometry" />
        </mxCell>
      </root>
    </mxGraphModel>
  </diagram>
</mxfile>
